<svg preserveAspectRatio="none" width="100%" height="100%" overflow="visible" style="display: block;" viewBox="0 0 16 16" fill="none" xmlns="http://www.w3.org/2000/svg">
<g id="icon-wrapper">
<path id="icon-shape" d="M13.9122 11.3911C14.3571 11.1134 14.9428 11.2492 15.2208 11.6938L15.2687 11.7788C15.4813 12.2108 15.3353 12.7418 14.9181 13.0024L13.6805 13.7725L13.6697 13.7793C13.2524 14.0401 12.7109 13.9375 12.4158 13.5567L12.3602 13.4776C12.0995 13.0604 12.2024 12.5188 12.5828 12.2237L12.6629 12.168L13.9015 11.3989L13.9122 11.3911ZM14.4385 2.24988C14.8704 2.03727 15.4013 2.18174 15.6622 2.59852L15.71 2.68348C15.9086 3.08669 15.7955 3.57688 15.4405 3.85242L15.3604 3.90809L1.64391 12.3017C1.22686 12.5623 0.685156 12.4603 0.39 12.08L0.334336 11.9999C0.056303 11.555 0.192125 10.9684 0.637071 10.6904L14.3536 2.29676L14.4385 2.24988ZM6.95407 2.14237C7.39846 1.86736 7.98139 2.00259 8.25876 2.44608C8.53679 2.89103 8.40194 3.47762 7.95699 3.75565L7.95309 3.7576L1.7734 7.49393L1.77242 7.49295C1.35605 7.75005 0.818527 7.64809 0.524377 7.26932L0.468713 7.18924C0.19068 6.74429 0.325525 6.1577 0.77047 5.87967L0.774377 5.87771L6.95407 2.14237Z" fill="var(--fill-0, black)"/>
<mask id="mask0_0_1172" style="mask-type:alpha" maskUnits="userSpaceOnUse" x="4" y="6" width="12" height="8">
<path id="mask" d="M14.4385 6.64457C14.8704 6.43217 15.4015 6.57732 15.6622 6.99418L15.71 7.07914C15.9084 7.48233 15.7955 7.97261 15.4405 8.24809L15.3604 8.30375L6.19982 13.8506C5.7827 14.1112 5.24197 14.0084 4.94689 13.628L4.89122 13.5489C4.61321 13.104 4.74812 12.5174 5.19298 12.2393L14.3536 6.69242L14.4385 6.64457Z" fill="url(#paint0_linear_0_1172)"/>
</mask>
<g mask="url(#mask0_0_1172)">
<path id="icon-shape_2" d="M14.4385 6.64457C14.8704 6.43217 15.4015 6.57732 15.6622 6.99418L15.71 7.07914C15.9085 7.48233 15.7955 7.97261 15.4405 8.24809L15.3604 8.30375L6.19982 13.8506C5.7827 14.1112 5.24197 14.0084 4.94689 13.628L4.89123 13.5489C4.61322 13.104 4.74812 12.5174 5.19298 12.2393L14.3536 6.69242L14.4385 6.64457Z" fill="var(--fill-0, black)"/>
</g>
</g>
<defs>
<linearGradient id="paint0_linear_0_1172" x1="14.7138" y1="9.89113" x2="6.67767" y2="13.4815" gradientUnits="userSpaceOnUse">
<stop stop-opacity="0.6"/>
<stop offset="0.5" stop-opacity="0.25"/>
<stop offset="1" stop-opacity="0.1"/>
</linearGradient>
</defs>
</svg>
